<?xml version="1.0" standalone="no"?>
<!DOCTYPE svg PUBLIC "-//W3C//DTD SVG 20010904//EN"
 "http://www.w3.org/TR/2001/REC-SVG-20010904/DTD/svg10.dtd">
<svg version="1.0" xmlns="http://www.w3.org/2000/svg"
 width="512.000000pt" height="512.000000pt" viewBox="0 0 512.000000 512.000000"
 preserveAspectRatio="xMidYMid meet">
<metadata>
Created by potrace 1.11, written by Peter Selinger 2001-2013
</metadata>
<g transform="translate(0.000000,512.000000) scale(0.100000,-0.100000)"
fill="#000000" stroke="none">
<path d="M2441 4899 c-24 -10 -57 -26 -75 -34 -52 -24 -1268 -562 -1306 -577
-56 -23 -79 -68 -58 -114 12 -26 21 -31 318 -161 118 -52 236 -104 261 -115
l45 -20 -58 -117 c-85 -171 -113 -294 -111 -486 4 -433 291 -826 704 -965 499
-169 1051 65 1273 540 119 254 131 551 32 814 -24 64 -77 167 -98 194 -8 9 8
21 67 47 42 20 120 56 173 82 130 62 263 123 268 123 2 0 4 -222 4 -494 l0
-494 -81 -169 c-44 -92 -81 -180 -81 -196 -1 -17 8 -37 21 -50 20 -21 31 -22
199 -23 97 -1 183 1 190 3 7 3 20 18 28 34 18 37 15 47 -67 244 l-63 150 -1
550 c-1 378 -5 556 -12 570 -14 26 -26 32 -453 220 -195 86 -506 224 -690 305
-184 82 -346 151 -360 154 -14 3 -44 -4 -69 -15z m184 -197 c50 -22 117 -52
150 -67 33 -14 74 -32 90 -40 94 -42 135 -59 175 -77 25 -11 187 -83 360 -160
173 -77 319 -143 323 -148 4 -4 -16 -17 -45 -30 -29 -12 -78 -33 -108 -47 -49
-22 -639 -285 -715 -318 -16 -7 -59 -26 -95 -43 -36 -16 -99 -44 -140 -61 -41
-18 -85 -37 -97 -43 -22 -11 -43 -4 -168 53 -22 10 -277 124 -567 252 l-527
234 617 275 c452 201 622 273 637 267 11 -4 61 -25 110 -47z m-598 -1003 c137
-61 268 -120 293 -132 25 -11 68 -30 97 -43 67 -31 89 -30 165 5 35 15 101 45
148 66 47 20 117 53 157 71 40 19 74 34 77 34 2 0 42 17 88 39 45 21 100 46
120 54 l37 16 36 -57 c83 -133 128 -291 128 -452 0 -144 -21 -245 -78 -374
-109 -247 -383 -463 -635 -501 -24 -4 -48 -9 -52 -11 -14 -9 -195 -5 -259 5
-347 56 -631 315 -719 656 -25 92 -33 257 -18 355 6 35 23 102 39 149 28 83
105 231 121 231 4 0 119 -50 255 -111z m1943 -851 c0 -12 -6 -17 -20 -15 -29
5 -31 10 -19 47 l12 33 13 -24 c7 -13 13 -32 14 -41z"/>
<path d="M2358 2065 c-2 -1 -30 -6 -63 -9 -295 -33 -625 -169 -874 -360 -90
-69 -221 -196 -287 -279 -33 -39 -61 -74 -64 -77 -18 -16 -112 -170 -156 -255
-78 -149 -146 -347 -168 -485 -3 -19 -8 -46 -11 -60 -7 -35 -16 -138 -20 -217
-2 -72 11 -116 40 -127 9 -3 805 -6 1769 -6 l1753 0 22 24 c26 27 29 76 17
216 -35 409 -220 803 -514 1099 -152 153 -290 255 -460 340 -281 142 -520 199
-834 199 -80 0 -148 -1 -150 -3z m372 -160 c377 -55 692 -209 949 -464 145
-145 239 -276 326 -456 94 -196 143 -370 161 -576 l6 -67 -1650 0 -1651 0 4
51 c36 444 257 869 595 1143 19 16 37 31 40 35 3 3 43 32 90 63 216 146 509
253 750 273 36 3 66 7 68 8 6 5 267 -3 312 -10z"/>
</g>
</svg>
